<svg width="33" height="33" viewBox="0 0 33 33" fill="none" xmlns="http://www.w3.org/2000/svg">
<path d="M23.2418 14.4377C23.2418 12.103 22.3144 9.86403 20.6636 8.21319C19.0127 6.56235 16.7737 5.63492 14.4391 5.63492C12.1045 5.63492 9.86545 6.56235 8.21461 8.21319C6.56377 9.86403 5.63634 12.103 5.63634 14.4377C5.63634 16.7723 6.56377 19.0113 8.21461 20.6622C9.86545 22.313 12.1045 23.2404 14.4391 23.2404C16.7737 23.2404 19.0127 22.313 20.6636 20.6622C22.3144 19.0113 23.2418 16.7723 23.2418 14.4377ZM25.4363 14.4377C25.4389 16.9805 24.5569 19.4451 22.9415 21.4089L23.0504 21.4997L28.0004 26.4497L28.1423 26.6213C28.2806 26.8325 28.342 27.0849 28.316 27.336C28.2901 27.5871 28.1785 27.8217 28 28.0002C27.8215 28.1787 27.5869 28.2903 27.3358 28.3163C27.0847 28.3422 26.8323 28.2809 26.621 28.1426L26.4494 28.0023L21.4994 23.0523L21.4087 22.9401C19.4769 24.5235 17.0636 25.4021 14.566 25.4313C12.0684 25.4605 9.63523 24.6385 7.66694 23.1008C5.69864 21.563 4.31247 19.401 3.73653 16.9705C3.1606 14.54 3.4292 11.9859 4.49815 9.7284C5.56709 7.4709 7.3727 5.64455 9.61783 4.54988C11.863 3.45521 14.4139 3.15744 16.8508 3.70558C19.2877 4.25371 21.4654 5.61509 23.0255 7.56569C24.5857 9.51629 25.4354 11.9399 25.4347 14.4377" fill="#636363"/>
</svg>
