<svg width="60" height="60" viewBox="0 0 60 60" fill="none" xmlns="http://www.w3.org/2000/svg">
<g filter="url(#filter0_i_344_102)">
<path d="M35.25 33C35.25 30.93 36.93 29.25 39 29.25C41.07 29.25 42.75 30.93 42.75 33C42.75 35.07 41.07 36.75 39 36.75C36.93 36.75 35.25 35.07 35.25 33ZM60 30V60H0V30C0 13.5 13.5 0 30 0C46.5 0 60 13.5 60 30ZM6 30C6 43.23 16.77 54 30 54C43.23 54 54 43.23 54 30C54 27.63 53.64 25.35 53.01 23.22C50.85 23.73 48.6 24 46.26 24C36.15 24 27.21 18.99 21.78 11.31C18.84 18.48 13.23 24.27 6.15 27.42C6 28.26 6 29.13 6 30ZM21 36.75C23.07 36.75 24.75 35.07 24.75 33C24.75 30.93 23.07 29.25 21 29.25C18.93 29.25 17.25 30.93 17.25 33C17.25 35.07 18.93 36.75 21 36.75Z" fill="#4F4C67"/>
</g>
<defs>
<filter id="filter0_i_344_102" x="0" y="0" width="60" height="64" filterUnits="userSpaceOnUse" color-interpolation-filters="sRGB">
<feFlood flood-opacity="0" result="BackgroundImageFix"/>
<feBlend mode="normal" in="SourceGraphic" in2="BackgroundImageFix" result="shape"/>
<feColorMatrix in="SourceAlpha" type="matrix" values="0 0 0 0 0 0 0 0 0 0 0 0 0 0 0 0 0 0 127 0" result="hardAlpha"/>
<feOffset dy="4"/>
<feGaussianBlur stdDeviation="2"/>
<feComposite in2="hardAlpha" operator="arithmetic" k2="-1" k3="1"/>
<feColorMatrix type="matrix" values="0 0 0 0 0 0 0 0 0 0 0 0 0 0 0 0 0 0 0.25 0"/>
<feBlend mode="normal" in2="shape" result="effect1_innerShadow_344_102"/>
</filter>
</defs>
</svg>
