<svg width="60" height="60" viewBox="0 0 60 60" fill="none" xmlns="http://www.w3.org/2000/svg">
<g filter="url(#filter0_i_344_98)">
<path d="M50 0L46.8857 6.88571L40 10L46.8857 13.1143L50 20L53.1429 13.1143L60 10L53.1429 6.88571M28.5714 2.85714C12.8571 2.85714 0 15.7143 0 31.4286V60H57.1429V31.4286C57.1429 27.2286 56.2 23.2286 54.5714 19.6286L51.0286 27.3429C51.2857 28.6857 51.4286 30 51.4286 31.4286C51.4286 44.0857 41.2286 54.2857 28.5714 54.2857C15.9143 54.2857 5.71429 44.0857 5.71429 31.4286C5.71429 31.2857 5.71429 31.1714 5.71429 31.0286C13.1714 28.2571 19.1143 22.5143 22.1143 15.1714C27.4571 21.7429 35.5429 25.7143 44.2857 25.7143C45.5429 25.7143 46.8286 25.6286 48.0857 25.4571L45.6 20C45.1714 20 44.7143 20 44.2857 20C36.2286 20 28.8571 15.7143 24.7429 8.91429C26 8.71429 27.2571 8.57143 28.5714 8.57143C30 8.57143 31.3143 8.71429 32.6286 8.94286L40.3714 5.45714C36.7714 3.8 32.7714 2.85714 28.5714 2.85714ZM17.4 11.4286C15.6 16.8857 11.8571 21.4286 6.88571 24.2857C8.68571 18.7714 12.4857 14.2857 17.4 11.4286ZM20 30.7143C18.0286 30.7143 16.4286 32.3143 16.4286 34.2857C16.4286 36.2571 18.0286 37.8571 20 37.8571C21.9714 37.8571 23.5714 36.2571 23.5714 34.2857C23.5714 32.3143 21.9714 30.7143 20 30.7143ZM37.1429 30.7143C35.1714 30.7143 33.5714 32.3143 33.5714 34.2857C33.5714 36.2571 35.1714 37.8571 37.1429 37.8571C39.1143 37.8571 40.7143 36.2571 40.7143 34.2857C40.7143 32.3143 39.1143 30.7143 37.1429 30.7143ZM5.71429 48.4857C7.37143 50.6857 9.31429 52.6286 11.5143 54.2857H5.71429M51.4286 48.4857V54.2857H45.6286C47.8286 52.6286 49.7714 50.6857 51.4286 48.4857Z" fill="#4F4C67"/>
</g>
<defs>
<filter id="filter0_i_344_98" x="0" y="0" width="60" height="64" filterUnits="userSpaceOnUse" color-interpolation-filters="sRGB">
<feFlood flood-opacity="0" result="BackgroundImageFix"/>
<feBlend mode="normal" in="SourceGraphic" in2="BackgroundImageFix" result="shape"/>
<feColorMatrix in="SourceAlpha" type="matrix" values="0 0 0 0 0 0 0 0 0 0 0 0 0 0 0 0 0 0 127 0" result="hardAlpha"/>
<feOffset dy="4"/>
<feGaussianBlur stdDeviation="2"/>
<feComposite in2="hardAlpha" operator="arithmetic" k2="-1" k3="1"/>
<feColorMatrix type="matrix" values="0 0 0 0 0 0 0 0 0 0 0 0 0 0 0 0 0 0 0.25 0"/>
<feBlend mode="normal" in2="shape" result="effect1_innerShadow_344_98"/>
</filter>
</defs>
</svg>
